<?xml version="1.0" encoding="UTF-8"?>
<svg version="1.1" xmlns="http://www.w3.org/2000/svg" width="224" height="182">
<path d="M0 0 C0 7.59 0 15.18 0 23 C-2.454375 24.010625 -4.90875 25.02125 -7.4375 26.0625 C-22.7723189 32.66788789 -32.75984476 43.38989203 -39 59 C-44.07106078 74.82553685 -42.84719567 91.03647678 -35.3125 105.875 C-26.37395269 120.79498123 -13.73233778 129.12331476 2.78125 133.78515625 C18.64107875 137.30697116 33.80692178 132.92124073 47.44140625 124.78125 C50.06173417 123.06919587 50.06173417 123.06919587 52.21484375 120.78125 C54 119 54 119 56 119 C56.26167969 118.43023437 56.52335937 117.86046875 56.79296875 117.2734375 C58.08942339 114.83157147 59.62706514 112.81494418 61.3125 110.625 C69.83975239 98.64412139 72.2591799 84.72035728 70.57421875 70.375 C68.14109078 56.04492116 62.13740342 43.56790483 51 34 C44.45723705 29.40694291 37.33402023 26.14315153 30 23 C30 15.41 30 7.82 30 0 C49.71995657 2.19110629 66.37640143 13.15779504 78.83203125 28.359375 C89.61246789 42.2753628 94.3743689 57.81403427 94.37060547 75.34033203 C94.37494954 77.59876635 94.41124701 79.85519534 94.44921875 82.11328125 C94.52205716 91.39339171 93.43927264 99.25955758 90 108 C89.72285156 108.70624512 89.44570312 109.41249023 89.16015625 110.14013672 C85.46729359 118.84709669 80.33405093 126.0458322 74 133 C73.38640625 133.70640625 72.7728125 134.4128125 72.140625 135.140625 C60.51920996 147.75532338 42.50772902 156.77406644 25.47607422 158.31982422 C21.72836198 158.47282278 18.00076017 158.51884085 14.25 158.5 C13.261707 158.49735641 13.261707 158.49735641 12.25344849 158.49465942 C1.5897012 158.43112411 -7.29000839 157.50780384 -17 153 C-18.15113281 152.46890625 -19.30226562 151.9378125 -20.48828125 151.390625 C-27.70728146 147.76030886 -33.96695825 143.35575727 -40 138 C-40.67417969 137.41992188 -41.34835938 136.83984375 -42.04296875 136.2421875 C-53.76141003 125.43596021 -64.27117548 108.05048267 -65.17700195 91.83056641 C-65.23197426 88.48535902 -65.27665082 85.14099272 -65.29516602 81.79541016 C-65.30657983 80.36627213 -65.32685948 78.93717304 -65.35668945 77.50830078 C-65.62830836 64.46755864 -63.46883877 52.67437399 -57.4375 40.9375 C-57.10016846 40.27613037 -56.76283691 39.61476074 -56.4152832 38.93334961 C-46.50512816 20.38380048 -28.94079365 6.98026455 -9.125 0.375 C-6.12708833 -0.15404324 -3.04423408 0 0 0 Z " fill="#FFFFFF" transform="translate(98,24)"/>
<path d="M0 0 C3.07365786 1.80803404 4.43019732 2.86039464 6 6 C6.13292041 8.67758249 6.20673047 11.33125579 6.23706055 14.01049805 C6.25017273 14.83835312 6.26328491 15.66620819 6.27679443 16.51914978 C6.31870244 19.26662515 6.35315325 22.01412956 6.38671875 24.76171875 C6.41237324 26.67023386 6.43815725 28.57874723 6.46406555 30.48725891 C6.51709845 34.49464381 6.56600714 38.50205622 6.61254883 42.50952148 C6.67277826 47.63642546 6.74702687 52.76301993 6.82492352 57.88968182 C6.88264326 61.83507186 6.93088524 65.78053701 6.976511 69.72608376 C6.99986726 71.61549141 7.0266062 73.50486047 7.05682945 75.39417076 C7.0981768 78.04361265 7.12624484 80.69288836 7.15112305 83.3425293 C7.16609329 84.11838379 7.18106354 84.89423828 7.19648743 85.69360352 C7.2239728 90.4508361 6.66369493 94.47669821 5 99 C1.41820549 102.48995362 -1.30147164 103.87180918 -6.3125 104.25 C-11.02460887 103.93053499 -14.20254243 102.71128747 -17.64364624 99.43515015 C-19.64581769 95.84052149 -19.45063445 92.29906144 -19.45166016 88.28759766 C-19.46334229 87.40907639 -19.47502441 86.53055511 -19.48706055 85.62541199 C-19.52065207 82.72151786 -19.53138368 79.81813381 -19.5390625 76.9140625 C-19.55124242 74.89390888 -19.56372841 72.87375709 -19.57650757 70.85360718 C-19.59898642 66.61850939 -19.60853802 62.38359159 -19.61083984 58.1484375 C-19.61612387 52.72509704 -19.66746006 47.30325619 -19.73035622 41.8803196 C-19.77124497 37.70751059 -19.78048221 33.53506336 -19.78095627 29.36207199 C-19.78633915 27.36296614 -19.8031983 25.36385667 -19.83180618 23.36494827 C-19.8685254 20.56592779 -19.86082189 17.77031785 -19.84228516 14.97119141 C-19.86273895 14.14813004 -19.88319275 13.32506866 -19.90426636 12.47706604 C-19.8418404 9.041589 -19.69847788 6.86424775 -17.49540329 4.13831711 C-11.97312016 -0.79174407 -7.26055694 -1.23583948 0 0 Z " fill="#F7941E" transform="translate(119,0)"/>
</svg>
