<?xml version="1.0" encoding="UTF-8"?>
<svg version="1.1" xmlns="http://www.w3.org/2000/svg" width="1624" height="372">
<path d="M0 0 C0 14.85 0 29.7 0 45 C-5.28 46.98 -10.56 48.96 -16 51 C-18.963296 52.34145944 -21.78200629 53.64912492 -24.625 55.1875 C-25.32391357 55.56350342 -26.02282715 55.93950684 -26.74291992 56.3269043 C-55.65698449 72.40631317 -74.13206612 99.47177054 -83.3515625 130.68261719 C-84.68257008 135.43936566 -85.53959745 140.08684712 -86 145 C-86.13148437 146.17949219 -86.26296875 147.35898438 -86.3984375 148.57421875 C-89.25598182 180.48346371 -79.34453955 210.92039464 -59.5 235.8125 C-37.32942399 261.90673465 -8.02629901 276.07639202 26 279 C30.0559867 279.29004749 33.94581787 279.29638929 38 279 C39.27617187 278.9071875 40.55234375 278.814375 41.8671875 278.71875 C67.40111459 276.45692733 90.48294763 266.67878822 110 250 C110.80953125 249.33613281 111.6190625 248.67226563 112.453125 247.98828125 C134.06660532 229.60322959 147.93672842 201.06072363 151 173 C152.93411773 136.30221844 143.03029986 104.86944128 118.60546875 77.296875 C103.50768509 61.37284447 85.39960556 52.64985208 65 45 C65 30.15 65 15.3 65 0 C75.15063157 1.12784795 75.15063157 1.12784795 78.8046875 2.3125 C79.62565918 2.57844971 80.44663086 2.84439941 81.29248047 3.1184082 C82.57082764 3.55479614 82.57082764 3.55479614 83.875 4 C84.78266113 4.30832764 85.69032227 4.61665527 86.62548828 4.93432617 C127.13714073 19.10531486 160.59434429 48.68585826 180 87 C183.01058002 93.53484984 185.55277844 100.23786141 188 107 C188.40992188 108.093125 188.81984375 109.18625 189.2421875 110.3125 C198.15458435 136.28971873 199.41359485 168.27380692 193 195 C192.70198486 196.25248535 192.70198486 196.25248535 192.39794922 197.53027344 C185.71463635 224.69406043 173.06388828 249.20600802 154.04296875 269.765625 C152.32046827 271.64950698 150.71883633 273.57134631 149.125 275.5625 C145.02101568 280.37678929 139.9675476 284.12400562 135 288 C133.62328125 289.10021484 133.62328125 289.10021484 132.21875 290.22265625 C103.26567532 312.77264711 68.92289218 323.69576864 32.4375 323.5 C31.57003143 323.49856995 30.70256287 323.49713989 29.80880737 323.4956665 C15.05618738 323.4357646 1.23767115 322.13697333 -13 318 C-14.17344971 317.66307129 -14.17344971 317.66307129 -15.37060547 317.31933594 C-57.2584684 304.83204506 -91.66535852 275.15575205 -112.78833008 237.27587891 C-118.92018592 225.82513931 -123.51278271 213.65911063 -126.875 201.125 C-127.06610352 200.4136792 -127.25720703 199.7023584 -127.45410156 198.96948242 C-130.68208942 186.07657084 -131.40996723 173.21930217 -131.375 160 C-131.37412384 159.18740723 -131.37324768 158.37481445 -131.37234497 157.53759766 C-131.22674008 116.48205714 -115.9341144 78.18875467 -88 48 C-87.52594727 47.48743652 -87.05189453 46.97487305 -86.56347656 46.44677734 C-65.73321116 24.21808731 -39.01590503 9.67070801 -10 1 C-9.38825928 0.81244141 -8.77651855 0.62488281 -8.14624023 0.43164062 C-6 0 -6 0 0 0 Z " fill="#FFFFFF" transform="translate(131,49)"/>
<path d="M0 0 C0.9739422 2.92375583 1.73939598 5.73194296 2.43261719 8.7253418 C2.65589691 9.64290253 2.87917664 10.56046326 3.10922241 11.50582886 C3.85089654 14.56743734 4.57387058 17.6331523 5.296875 20.69921875 C5.81279851 22.84579106 6.32984539 24.99209366 6.84796143 27.13813782 C8.2180442 32.82691509 9.57227201 38.51935673 10.92346191 44.21264648 C12.27254722 49.88434377 13.6370489 55.55232526 15 61.22070312 C20.42078342 83.79319256 25.77366059 106.38165142 31 129 C34.42449968 116.71230744 37.32369587 104.31162668 40.20744896 91.88786697 C41.05833392 88.22288067 41.91245016 84.55866047 42.76741028 80.8946228 C44.88576871 71.81381113 47.00010509 62.7320646 49.11187744 53.64971924 C50.90604098 45.93338382 52.70295643 38.21770199 54.50414467 30.50300217 C55.07131643 28.07032873 55.63708261 25.63732715 56.201437 23.20399857 C56.98546352 19.82354871 57.77384509 16.44414278 58.56323242 13.06494141 C58.79647217 12.05417038 59.02971191 11.04339935 59.27001953 10.0019989 C59.48438156 9.08833054 59.69874359 8.17466217 59.91960144 7.23330688 C60.10521731 6.43515879 60.29083319 5.63701069 60.48207378 4.81467628 C61 3 61 3 62 2 C63.92667507 1.91251793 65.85651861 1.89302666 67.78515625 1.90234375 C68.95498047 1.90556641 70.12480469 1.90878906 71.33007812 1.91210938 C72.56177734 1.92048828 73.79347656 1.92886719 75.0625 1.9375 C76.91584961 1.94426758 76.91584961 1.94426758 78.80664062 1.95117188 C81.87114117 1.96300392 84.93554721 1.97948827 88 2 C90.2846743 8.47812065 92.08121328 14.99176192 93.6796875 21.66943359 C93.92889954 22.69671066 94.17811157 23.72398773 94.43487549 24.78239441 C95.25181615 28.15355711 96.06337337 31.52599187 96.875 34.8984375 C97.44606949 37.25828144 98.01752757 39.61803137 98.58935547 41.97769165 C100.09078015 48.17698165 101.58785988 54.37731202 103.08374023 60.57794189 C105.47659357 70.49412885 107.87538672 80.40887874 110.27545166 90.3233223 C111.10955525 93.7720783 111.94139877 97.22137348 112.77294922 100.67074585 C113.28867282 102.80443852 113.80445743 104.93811645 114.3203125 107.07177734 C114.54793274 108.01861893 114.77555298 108.96546051 115.0100708 109.94099426 C116.55678444 116.32744201 118.24026682 122.6690226 120 129 C120.14853644 128.36370257 120.29707289 127.72740515 120.45011044 127.07182598 C124.06231152 111.59839134 127.67607356 96.12532221 131.29157925 80.65265942 C133.0399628 73.17023023 134.78781534 65.68767774 136.53442383 58.20483398 C138.0565424 51.68375901 139.57965118 45.16291627 141.10395581 38.64235193 C141.91122873 35.18889912 142.71800105 31.73533108 143.52358818 28.2814846 C144.42230854 24.42842576 145.32323929 20.57588567 146.22436523 16.72338867 C146.49194138 15.57468292 146.75951752 14.42597717 147.03520203 13.24246216 C147.28058716 12.19498306 147.52597229 11.14750397 147.77879333 10.06828308 C147.99172751 9.15662982 148.20466169 8.24497656 148.42404842 7.30569744 C149 5 149 5 150 2 C158.91 2 167.82 2 177 2 C174.07798062 14.71473299 170.84531163 27.3147842 167.44921875 39.91015625 C166.91205739 41.91024571 166.37513707 43.91039993 165.83843994 45.91061401 C164.41670356 51.20679657 162.9918397 56.50213265 161.56626511 61.79728317 C160.09460521 67.26551197 158.62562484 72.7344604 157.15649414 78.20336914 C155.40384028 84.72721826 153.65098814 91.25101358 151.89683533 97.77445984 C148.77014785 109.40308982 145.65000087 121.03341261 142.54604149 132.66813087 C141.99699546 134.72613194 141.44767645 136.78405994 140.89826965 138.84196472 C138.94805553 146.14752064 138.94805553 146.14752064 137.00180054 153.45413208 C136.15800924 156.62486933 135.31171887 159.79492905 134.46484375 162.96484375 C134.22445374 163.87144745 133.98406372 164.77805115 133.73638916 165.71212769 C132.11382063 171.77235875 132.11382063 171.77235875 131 174 C123.41 174 115.82 174 108 174 C104.62503477 163.87510432 104.62503477 163.87510432 103.67909241 160.14633179 C103.46198105 159.29739349 103.24486969 158.4484552 103.0211792 157.5737915 C102.79513 156.67593933 102.56908081 155.77808716 102.33618164 154.85302734 C101.96477303 153.39490128 101.96477303 153.39490128 101.58586121 151.90731812 C100.77418803 148.71763791 99.96718192 145.52679642 99.16015625 142.3359375 C98.59141592 140.09778958 98.02235432 137.85972329 97.45298767 135.62173462 C95.95729441 129.73955894 94.46543623 123.85641769 92.97454834 117.97302246 C90.59340923 108.5794502 88.20612554 99.1874372 85.81942558 89.79527664 C84.99201188 86.5371545 84.16603801 83.27867024 83.34034729 80.02011108 C80.6284379 69.32778534 77.88261228 58.64773468 75 48 C70.89486521 62.38610165 67.21778413 76.8661632 63.60546875 91.3828125 C63.00747561 93.77852466 62.40927136 96.17418414 61.81086731 98.5697937 C60.25198268 104.81289402 58.69592786 111.05669614 57.14050293 117.30065918 C55.54658102 123.69696756 53.94992634 130.09259367 52.35351562 136.48828125 C49.23303312 148.99152937 46.11579938 161.49558403 43 174 C35.08 174 27.16 174 19 174 C8.46234513 136.28354222 -1.8987436 98.51973478 -12.2232132 60.74444103 C-13.06371255 57.66922192 -13.9043198 54.59403231 -14.74493408 51.5188446 C-15.78136783 47.7272443 -16.81724643 43.93549302 -17.85272217 40.14363098 C-18.09167961 39.26931081 -18.33063705 38.39499063 -18.57683563 37.49417591 C-19.04182837 35.79239642 -19.50626556 34.09046501 -19.9701004 32.38836956 C-21.1123809 28.20524455 -22.27219213 24.02812428 -23.46209717 19.85827637 C-23.69593801 19.03387936 -23.92977886 18.20948235 -24.1707058 17.36010361 C-24.61264401 15.80553631 -25.05878095 14.252154 -25.50991249 12.70022964 C-26.47647675 9.29199417 -27 6.57665288 -27 3 C-23.06451278 2.30062527 -19.12636969 1.61754417 -15.1875 0.9375 C-14.06794922 0.73833984 -12.94839844 0.53917969 -11.79492188 0.33398438 C-10.18520508 0.05844727 -10.18520508 0.05844727 -8.54296875 -0.22265625 C-7.55321045 -0.39547119 -6.56345215 -0.56828613 -5.54370117 -0.74633789 C-3 -1 -3 -1 0 0 Z " fill="#FFFFFF" transform="translate(1137,85)"/>
<path d="M0 0 C1.12591553 0.00523682 2.25183105 0.01047363 3.41186523 0.01586914 C4.62680664 0.0190918 5.84174805 0.02231445 7.09350586 0.02563477 C8.37290039 0.03401367 9.65229492 0.04239258 10.97045898 0.05102539 C12.2537207 0.05553711 13.53698242 0.06004883 14.85913086 0.06469727 C18.04211921 0.07652994 21.22501661 0.09301471 24.40795898 0.11352539 C54.30929814 60.40876452 77.22787688 124.21421712 100.37704468 187.30969238 C101.10003185 189.27603943 101.82820343 191.24048438 102.56021118 193.20349121 C102.92738251 194.19506226 103.29455383 195.1866333 103.67285156 196.20825195 C104.0058577 197.10207581 104.33886383 197.99589966 104.68196106 198.91680908 C105.40795898 201.11352539 105.40795898 201.11352539 105.40795898 203.11352539 C94.84795898 203.11352539 84.28795898 203.11352539 73.40795898 203.11352539 C69.14462951 192.40783138 65.10008926 181.64098089 61.22549438 170.7895813 C60.72219417 169.38070279 60.21729072 167.97239599 59.71078491 166.56466675 C58.99154164 164.56316998 58.27886437 162.55945813 57.56811523 160.55493164 C56.9436853 158.80224976 56.9436853 158.80224976 56.30664062 157.01416016 C55.40795898 154.11352539 55.40795898 154.11352539 55.40795898 151.11352539 C25.37795898 151.11352539 -4.65204102 151.11352539 -35.59204102 151.11352539 C-35.92204102 152.76352539 -36.25204102 154.41352539 -36.59204102 156.11352539 C-37.04953312 157.60644707 -37.53678818 159.09051769 -38.05078125 160.56494141 C-38.34456161 161.41254532 -38.63834198 162.26014923 -38.94102478 163.13343811 C-39.41603172 164.48676491 -39.41603172 164.48676491 -39.90063477 165.86743164 C-40.22741714 166.80530014 -40.55419952 167.74316864 -40.8908844 168.7094574 C-41.5810831 170.68772653 -42.27292811 172.66542195 -42.96630859 174.64257812 C-44.02642607 177.66713832 -45.08011153 180.69388371 -46.13305664 183.72094727 C-46.80519943 185.64490932 -47.47771297 187.56874191 -48.15063477 189.49243164 C-48.46528183 190.39667374 -48.77992889 191.30091583 -49.10411072 192.2325592 C-49.40104324 193.07701096 -49.69797577 193.92146271 -50.00390625 194.79150391 C-50.39243019 195.90139427 -50.39243019 195.90139427 -50.7888031 197.03370667 C-51.59280197 199.11549572 -52.59401698 201.11747733 -53.59204102 203.11352539 C-63.49204102 203.11352539 -73.39204102 203.11352539 -83.59204102 203.11352539 C-82.46684807 196.36236773 -82.46684807 196.36236773 -81.3112793 193.18676758 C-80.92172058 192.10513336 -80.92172058 192.10513336 -80.52429199 191.00164795 C-80.23985229 190.22903625 -79.9554126 189.45642456 -79.66235352 188.66040039 C-79.36067261 187.82897522 -79.0589917 186.99755005 -78.74816895 186.14093018 C-77.74377326 183.37957171 -76.73096187 180.62139955 -75.71704102 177.86352539 C-75.36534851 176.90269043 -75.01365601 175.94185547 -74.65130615 174.9519043 C-54.66748175 120.3595411 -33.78887312 66.07341622 -9.34204102 13.30102539 C-8.91415787 12.37664673 -8.91415787 12.37664673 -8.47763062 11.43359375 C-3.23943673 0.14187982 -3.23943673 0.14187982 0 0 Z M9.40795898 35.11352539 C-2.12112809 59.34636124 -11.53147426 84.42594954 -20.90454102 109.55102539 C-21.19334137 110.32312347 -21.48214172 111.09522156 -21.7796936 111.89071655 C-22.59209672 114.0664414 -23.39965018 116.24389414 -24.20532227 118.42211914 C-24.44839111 119.07259216 -24.69145996 119.72306519 -24.94189453 120.39324951 C-26.18914688 123.66688557 -26.18914688 123.66688557 -26.59204102 127.11352539 C-2.50204102 127.11352539 21.58795898 127.11352539 46.40795898 127.11352539 C44.13566029 119.40684576 44.13566029 119.40684576 41.52954102 111.86450195 C41.19089523 110.96008362 40.85224945 110.05566528 40.50334167 109.12384033 C40.14444351 108.17684265 39.78554535 107.22984497 39.41577148 106.25415039 C39.03306595 105.238349 38.65036041 104.22254761 38.25605774 103.17596436 C37.02006903 99.90321429 35.7774383 96.63305564 34.53295898 93.36352539 C34.11088165 92.25235352 33.68880432 91.14118164 33.25393677 89.99633789 C28.02874355 76.26368222 22.70665071 62.58869168 16.84545898 49.11352539 C16.5764679 48.49223755 16.30747681 47.87094971 16.03033447 47.23083496 C13.45665796 40.69446577 13.45665796 40.69446577 9.40795898 35.11352539 Z " fill="#FFFFFF" transform="translate(447.592041015625,54.886474609375)"/>
<path d="M0 0 C8.58 0 17.16 0 26 0 C26.33 38.61 26.66 77.22 27 117 C29.97 113.7 32.94 110.4 36 107 C39.625 103.375 39.625 103.375 41.32421875 101.70703125 C43.11053443 99.88740432 44.77477835 97.99546083 46.4375 96.0625 C48.85617779 93.25423653 51.35899683 90.60029407 54 88 C56.62040609 85.41990785 59.10323412 82.78896393 61.5 80 C64.51039766 76.49699181 67.71775133 73.26229149 71.0078125 70.0234375 C73.64865452 67.3411705 76.10671667 64.52192612 78.5546875 61.6640625 C81.7196167 58.02011699 81.7196167 58.02011699 85.16455078 57.77294922 C86.50817963 57.77326611 87.8518341 57.78457819 89.1953125 57.8046875 C89.90275604 57.8075174 90.61019958 57.81034729 91.33908081 57.81326294 C93.6012251 57.82446863 95.86297515 57.84957321 98.125 57.875 C99.65754637 57.88502933 101.19009894 57.89415526 102.72265625 57.90234375 C106.48192301 57.92440914 110.24089464 57.95894104 114 58 C112.41190097 61.92510385 109.71055942 64.54546933 106.73999023 67.45532227 C106.20485809 67.98753387 105.66972595 68.51974548 105.11837769 69.06808472 C103.95890964 70.21995683 102.79713724 71.36951303 101.63332939 72.5170002 C99.79248269 74.33229367 97.95797962 76.1537855 96.12501526 77.97703552 C92.23473226 81.8444777 88.33668027 85.70403099 84.4375 89.5625 C79.91573815 94.03709658 75.39720077 98.51484935 70.88701057 103.00111198 C69.07791015 104.79722849 67.2628998 106.58722604 65.44761658 108.37709045 C64.34165525 109.47578832 63.23597286 110.57476705 62.13061523 111.67407227 C61.62306198 112.17129288 61.11550873 112.66851349 60.59257507 113.18080139 C58.31291698 115.45976267 57.03641114 116.89076659 56 120 C56.89382027 121.68032522 56.89382027 121.68032522 58.359375 123.30078125 C58.89240234 123.94080078 59.42542969 124.58082031 59.97460938 125.24023438 C60.56048828 125.92408203 61.14636719 126.60792969 61.75 127.3125 C62.96458161 128.76605875 64.17810664 130.22050096 65.390625 131.67578125 C66.30811523 132.76947021 66.30811523 132.76947021 67.24414062 133.88525391 C69.72639136 136.87486123 72.11724962 139.93094288 74.5 143 C78.44040585 148.04963731 82.45027511 153.03766105 86.5 158 C91.003316 163.51814777 95.44180908 169.07989369 99.82275391 174.69555664 C103.96986371 179.99682205 108.21920529 185.2128347 112.49804688 190.40820312 C122 202.00845456 122 202.00845456 122 205 C91.06725924 207.59368956 91.06725924 207.59368956 84.55859375 202.22265625 C81.88758123 199.18629498 79.98207356 195.76750969 78.16601562 192.16845703 C76.1699672 188.45637535 73.52395989 185.2513131 70.9375 181.9375 C69.93071733 180.59199125 68.92677904 179.24434922 67.92578125 177.89453125 C64.346571 173.10770608 60.64807329 168.41874327 56.94140625 163.73046875 C52.85133333 158.5551877 48.81382388 153.33889288 44.77001953 148.12744141 C44.20782715 147.40347168 43.64563477 146.67950195 43.06640625 145.93359375 C42.27387451 144.91048096 42.27387451 144.91048096 41.46533203 143.86669922 C40.2005175 142.25544098 38.89847822 140.67353212 37.58984375 139.09765625 C36 137 36 137 36 135 C34.68712379 136.14540225 33.37470979 137.29133433 32.0625 138.4375 C30.96615234 139.39462891 30.96615234 139.39462891 29.84765625 140.37109375 C27.27288899 142.37301953 27.27288899 142.37301953 26.84178162 145.47401428 C26.82623734 146.57321701 26.81069305 147.67241974 26.79467773 148.80493164 C26.77473251 150.04614273 26.75478729 151.28735382 26.73423767 152.56617737 C26.71725207 153.9308357 26.70037331 155.29549537 26.68359375 156.66015625 C26.66303064 158.04878875 26.64203434 159.4374149 26.62062073 160.82603455 C26.56533353 164.48714059 26.51595374 168.14830373 26.46777344 171.80950928 C26.41760679 175.54297997 26.36189554 179.27636738 26.30664062 183.00976562 C26.19897779 190.33977531 26.0980632 197.66985445 26 205 C17.42 205 8.84 205 0 205 C0 137.35 0 69.7 0 0 Z " fill="#FFFFFF" transform="translate(564,53)"/>
<path d="M0 0 C0.7734375 -0.02449219 1.546875 -0.04898438 2.34375 -0.07421875 C9.05760168 -0.10801331 14.16660395 1.71423159 19.2734375 6.12109375 C19.94246094 6.95833984 19.94246094 6.95833984 20.625 7.8125 C21.08648437 8.36808594 21.54796875 8.92367188 22.0234375 9.49609375 C25.06577402 14.15648822 25.50317649 18.16337385 25.51742554 23.68000793 C25.52195665 24.40550785 25.52648776 25.13100777 25.53115618 25.87849253 C25.54379434 28.3042327 25.54218021 30.72974818 25.54052734 33.15551758 C25.54651299 34.89695016 25.55331862 36.63838008 25.56088257 38.37980652 C25.57854676 43.10718375 25.58323815 47.83448857 25.58451414 52.56189561 C25.58593614 55.51669648 25.59020667 58.47147896 25.59550858 61.42627525 C25.6140107 71.73837833 25.62217902 82.05042971 25.62060547 92.36254883 C25.61940423 101.96866547 25.64050267 111.57455737 25.6720928 121.18061715 C25.69826235 129.43301474 25.70897247 137.68533895 25.70769465 145.9377777 C25.70718519 150.8643027 25.71285959 155.79062799 25.73405075 160.71711159 C25.75344437 165.35224925 25.75354992 169.98699693 25.73901749 174.62214851 C25.73692964 176.32004619 25.74162887 178.01796835 25.7537384 179.71582413 C25.86752176 196.77900339 25.86752176 196.77900339 19.609375 204.36328125 C12.84800454 209.9266419 6.78670096 211.9565768 -2.01171875 211.65234375 C-9.34534 210.90956613 -14.11929104 208.6952274 -19.2421875 203.38671875 C-23.04331857 198.3152615 -24.12648471 194.17818972 -24.14440918 187.87380981 C-24.15050028 187.13928837 -24.15659139 186.40476692 -24.16286707 185.64798725 C-24.17945713 183.19762008 -24.17472711 180.74777485 -24.16992188 178.29736328 C-24.17726455 176.53607648 -24.18585136 174.77479449 -24.19558716 173.01351929 C-24.21779133 168.2365876 -24.22073438 163.45982847 -24.21883965 158.68285227 C-24.21871989 154.69185256 -24.22728613 150.70088933 -24.23561716 146.70989978 C-24.25484742 137.2924149 -24.25773647 127.87501866 -24.25097656 118.45751953 C-24.24433631 108.74964487 -24.2672004 99.04215021 -24.30429029 89.33435261 C-24.33500137 80.99275211 -24.34634578 72.65127377 -24.34245348 64.30961788 C-24.34038739 59.3305338 -24.34584368 54.35174543 -24.37034607 49.372715 C-24.39263379 44.68905894 -24.39071857 40.00602005 -24.37041855 35.32236099 C-24.36701205 33.60672525 -24.37208211 31.8910478 -24.38640213 30.17546844 C-24.51709624 13.35274888 -24.51709624 13.35274888 -18.75 7.375 C-12.76504532 1.45042345 -8.1883216 0.01337961 0 0 Z " fill="#F7941E" transform="translate(162.75,-0.375)"/>
<path d="M0 0 C0.33 33 0.66 66 1 100 C5.64899056 95.35100944 9.9730411 90.93379355 14.22265625 86 C17.95429949 81.80087617 22.0304602 77.93180915 26.0390625 74 C30.02003659 70.06513758 33.78904729 66.02623535 37.44189453 61.78515625 C39.35237863 59.59627194 41.36537834 57.53576865 43.4375 55.5 C44.11683594 54.8296875 44.79617188 54.159375 45.49609375 53.46875 C45.99238281 52.9840625 46.48867187 52.499375 47 52 C51.00814928 55.83228898 54.42828753 59.92522322 57.8125 64.3125 C58.56563477 65.28026367 58.56563477 65.28026367 59.33398438 66.26757812 C60.55905681 67.84267125 61.7799632 69.42100316 63 71 C61.70280076 73.85779017 60.3363174 75.91008536 58.11083984 78.11621094 C57.5303891 78.69651062 56.94993835 79.2768103 56.35189819 79.87469482 C55.72788116 80.48838928 55.10386414 81.10208374 54.4609375 81.734375 C53.82008209 82.37240051 53.17922668 83.01042603 52.51895142 83.66778564 C50.47562179 85.69994069 48.42544018 87.72502218 46.375 89.75 C44.9865214 91.1284453 43.5984951 92.50734636 42.2109375 93.88671875 C38.81251303 97.26311894 35.40792746 100.63319288 32 104 C37.42890442 115.04761068 37.42890442 115.04761068 43.5 125.75 C44.35413627 127.17892812 45.20690413 128.60867474 46.05859375 130.0390625 C46.75251221 131.20356934 46.75251221 131.20356934 47.46044922 132.39160156 C51.2020377 138.73082314 54.8423838 145.1296364 58.50805664 151.51293945 C62.42301321 158.31434281 66.38171751 165.08298939 70.56274414 171.72509766 C72.22245844 174.41628431 73 175.76384525 73 179 C68.83773496 179.22359275 64.67869784 179.38625784 60.51220703 179.49438477 C59.09752509 179.5394723 57.68325869 179.60076961 56.27001953 179.67895508 C44.67407811 180.30410625 44.67407811 180.30410625 40.93530273 177.39160156 C39.30078545 175.01068622 38.16272208 172.64308296 37 170 C35.92210359 168.02871649 34.83431861 166.06281757 33.73828125 164.1015625 C32.59268281 161.9446543 31.45088431 159.7857244 30.3125 157.625 C24.44742415 146.60267522 18.34699893 135.75103901 12 125 C4.60613371 130.42127819 4.60613371 130.42127819 0.43609619 138.28536987 C0.21337362 140.90266898 0.16890294 143.46326249 0.1953125 146.08984375 C0.18160614 147.03436905 0.16789978 147.97889435 0.15377808 148.95204163 C0.11660056 151.94768437 0.1201847 154.94166006 0.125 157.9375 C0.10686467 159.97723931 0.08605935 162.01695675 0.0625 164.05664062 C0.00577028 169.03872564 0.00425033 174.01649358 0 179 C-8.91 179 -17.82 179 -27 179 C-27 120.92 -27 62.84 -27 3 C-9 0 -9 0 0 0 Z " fill="#FFFFFF" transform="translate(1551,80)"/>
<path d="M0 0 C12.11595749 10.60379639 18.39489933 25.66299786 19.83666992 41.53881836 C19.97051047 44.87592576 20.00304022 48.19166629 19.97265625 51.53125 C19.96508301 52.70824463 19.95750977 53.88523926 19.94970703 55.09790039 C19.59349665 74.00435152 14.20950677 89.73733564 0.53515625 103.21875 C-0.04105469 103.80527344 -0.61726563 104.39179688 -1.2109375 104.99609375 C-10.89282895 114.12075403 -25.0224618 117.23161523 -37.96484375 117.59375 C-53.0994509 117.13512554 -67.10534148 112.63197141 -78.33984375 102.21875 C-93.61070648 85.82171745 -96.18356389 65.47300408 -95.58789062 43.90527344 C-94.87563263 28.35430722 -88.75188987 13.49658866 -77.8125 2.33203125 C-55.92461227 -17.37070962 -23.2588675 -17.93777408 0 0 Z M-54.46484375 18.21875 C-64.22622902 27.50548017 -68.19927686 38.84077815 -68.77734375 52.15625 C-68.61802578 63.72273468 -65.69943282 75.7594353 -57.46484375 84.21875 C-49.10697901 90.9912627 -42.13171001 92.0330146 -31.46484375 91.21875 C-23.50789152 89.29049588 -17.97567979 84.32055357 -13.76953125 77.44921875 C-6.87981428 64.48523441 -5.34983846 50.41084209 -9.46484375 36.21875 C-12.45311854 27.61309327 -17.08863468 19.75747934 -25.19921875 15.19140625 C-35.15920964 10.91547913 -45.74799369 11.41437282 -54.46484375 18.21875 Z " fill="#FFFFFF" transform="translate(1412.46484375,144.78125)"/>
<path d="M0 0 C9.24 0 18.48 0 28 0 C35.94675027 19.23343906 43.53634237 38.58574654 51.0090332 58.00756836 C56.17299146 71.40872893 61.50489535 84.73111832 67 98 C67.40089844 96.97269775 67.80179688 95.94539551 68.21484375 94.88696289 C68.61876846 93.85190865 68.61876846 93.85190865 69.03085327 92.79594421 C69.64806626 91.21433204 70.26527389 89.63271779 70.88247681 88.05110168 C72.64337082 83.53873989 74.40436502 79.02641724 76.16552734 74.51416016 C79.55472012 65.83045627 82.94340228 57.14655584 86.32843018 48.46122742 C87.75215544 44.80832396 89.17635575 41.15560579 90.60058594 37.50289917 C91.27432459 35.77457727 91.94783375 34.04616589 92.62109375 32.31765747 C94.74076356 26.8758282 96.86554036 21.4360465 99 16 C99.29177124 15.25657349 99.58354248 14.51314697 99.88415527 13.74719238 C100.71903086 11.62444324 101.55791558 9.50333132 102.3984375 7.3828125 C102.87716309 6.17254395 103.35588867 4.96227539 103.84912109 3.71533203 C105 1 105 1 106 0 C107.92667507 -0.08748207 109.85651861 -0.10697334 111.78515625 -0.09765625 C112.95498047 -0.09443359 114.12480469 -0.09121094 115.33007812 -0.08789062 C116.56177734 -0.07951172 117.79347656 -0.07113281 119.0625 -0.0625 C120.91584961 -0.05573242 120.91584961 -0.05573242 122.80664062 -0.04882812 C125.87114117 -0.03699608 128.93554721 -0.02051173 132 0 C131.39958069 3.38675004 130.55290251 6.42786776 129.27270508 9.61791992 C128.91700439 10.51016769 128.56130371 11.40241547 128.19482422 12.32170105 C127.80697754 13.28159439 127.41913086 14.24148773 127.01953125 15.23046875 C126.61516846 16.24059525 126.21080566 17.25072174 125.79418945 18.29145813 C124.47139479 21.59193857 123.14214654 24.88977461 121.8125 28.1875 C120.8919741 30.47908749 119.97164665 32.77075471 119.05151367 35.0625 C113.48297068 48.91553574 107.8518689 62.74161054 102.1418457 76.53686523 C97.35323387 88.10919174 92.64912554 99.71475275 87.95907593 111.32733154 C83.36876498 122.69192284 78.76196051 134.04960352 74.1328125 145.3984375 C73.88327568 146.01030411 73.63373886 146.62217072 73.37664032 147.25257874 C70.66057946 153.91234075 67.94268468 160.57134972 65.22265625 167.22949219 C64.31767656 169.44725266 63.41272719 171.66502551 62.5078125 173.8828125 C61.89016525 175.39263199 61.89016525 175.39263199 61.26004028 176.93295288 C60.87403656 177.87949738 60.48803284 178.82604187 60.09033203 179.80126953 C59.75744171 180.61612823 59.42455139 181.43098694 59.08157349 182.27053833 C57.67191841 185.82794755 56.34358236 189.41711371 55 193 C45.76 193 36.52 193 27 193 C30.36959593 182.89121221 30.36959593 182.89121221 32.40771484 178.43945312 C33.08258438 176.95245911 33.08258438 176.95245911 33.77108765 175.4354248 C34.2462381 174.39454712 34.72138855 173.35366943 35.2109375 172.28125 C36.21897676 170.0280271 37.22544058 167.77409883 38.23046875 165.51953125 C39.80320107 161.9974969 41.38400912 158.48035189 42.99169922 154.97412109 C44.550208 151.56711518 46.07090804 148.14526933 47.5859375 144.71875 C48.07323334 143.67787231 48.56052917 142.63699463 49.06259155 141.5645752 C49.70909164 140.07758118 49.70909164 140.07758118 50.36865234 138.56054688 C50.7570932 137.7016687 51.14553406 136.84279053 51.54574585 135.95788574 C52.23430257 131.47433373 50.65170431 128.14327169 49 124 C48.68553295 123.17890432 48.3710659 122.35780865 48.04706955 121.51183128 C46.98789887 118.77196829 45.90057629 116.04457164 44.80737305 113.31811523 C44.39716919 112.28911606 43.98696533 111.26011688 43.56433105 110.19993591 C42.21576165 106.81856506 40.86369366 103.43860424 39.51171875 100.05859375 C38.56604144 97.68850725 37.62063677 95.31831195 36.67549133 92.94801331 C33.93574518 86.07874003 31.19253232 79.21085604 28.4487915 72.3431778 C24.72867134 63.03090995 21.01132811 53.71753612 17.29627419 44.40324593 C15.91859798 40.95097872 14.53881734 37.4995581 13.15885925 34.04820251 C8.64452686 22.74307198 4.21993518 11.41852094 0 0 Z " fill="#FFFFFF" transform="translate(936,118)"/>
<path d="M0 0 C0 14.19 0 28.38 0 43 C17.49 43 34.98 43 53 43 C53 50.26 53 57.52 53 65 C35.51 65 18.02 65 0 65 C0.09107811 78.03727101 0.09107811 78.03727101 0.20898438 91.07421875 C0.26308737 96.39987472 0.3142047 101.72543041 0.34643555 107.05126953 C0.37265215 111.35030539 0.41318065 115.64899997 0.46318626 119.94782257 C0.47973194 121.57901987 0.49132211 123.21027603 0.49761391 124.8415451 C0.37270315 142.25854725 0.37270315 142.25854725 7.546875 157.66796875 C12.93119848 162.60359861 20.44772112 163.24903039 27.40625 163.15625 C33.9567268 162.76164296 40.40180006 161.78811934 46.5 159.3125 C50.03407012 157.98722371 50.6596334 157.90852056 54 159 C54.69888677 161.74755487 55.3843988 164.49731197 56.0625 167.25 C56.26166016 168.02730469 56.46082031 168.80460938 56.66601562 169.60546875 C56.84970703 170.35957031 57.03339844 171.11367187 57.22265625 171.890625 C57.39547119 172.58188477 57.56828613 173.27314453 57.74633789 173.98535156 C58.03974348 176.31565273 57.85398805 177.81344083 57 180 C40.6630939 188.65879943 18.70892772 189.32737902 1.23828125 184.1875 C-9.55001321 180.22243006 -16.36545332 173.8549249 -21.1875 163.43359375 C-25.71907244 151.98804131 -26.29799378 140.12590051 -26.22705078 127.94799805 C-26.22648488 126.59634408 -26.22680671 125.2446895 -26.22793579 123.89303589 C-26.22850333 120.26783267 -26.21684749 116.64276517 -26.20278788 113.01759315 C-26.19017929 109.21264847 -26.18910211 105.40769977 -26.18673706 101.60273743 C-26.18055177 94.417241 -26.16418144 87.23180633 -26.14403808 80.04633695 C-26.12158654 71.85756639 -26.11066251 63.66879268 -26.10064721 55.47999895 C-26.07981216 38.65329663 -26.04469438 21.82665623 -26 5 C-22.51591427 3.81844858 -19.18074869 2.73813784 -15.546875 2.1484375 C-14.763125 2.01953125 -13.979375 1.890625 -13.171875 1.7578125 C-12.37265625 1.63148437 -11.5734375 1.50515625 -10.75 1.375 C-9.9353125 1.2409375 -9.120625 1.106875 -8.28125 0.96875 C-2.31058673 0 -2.31058673 0 0 0 Z " fill="#FFFFFF" transform="translate(876,74)"/>
<path d="M0 0 C-1.13635546 7.71271047 -2.38159365 15.37282967 -4 23 C-8.58807671 22.47060653 -13.08650859 21.79531138 -17.625 20.9375 C-30.39504491 18.82516174 -41.04547984 20.57102747 -54 23 C-54.33 61.61 -54.66 100.22 -55 140 C-63.58 140 -72.16 140 -81 140 C-81 95.45 -81 50.9 -81 5 C-55.84172662 -2.18807811 -55.84172662 -2.18807811 -48 -3 C-46.75863281 -3.13277344 -45.51726563 -3.26554687 -44.23828125 -3.40234375 C-29.35445873 -4.74495204 -14.5708482 -3.14463386 0 0 Z " fill="#FFFFFF" transform="translate(775,118)"/>
<path d="M0 0 C4.95 0 9.9 0 15 0 C17.64 5.94 20.28 11.88 23 18 C24.7325 16.659375 26.465 15.31875 28.25 13.9375 C38.57426441 6.10933714 47.72682402 0 61 0 C63.475 11.385 63.475 11.385 66 23 C63.64875 23.639375 61.2975 24.27875 58.875 24.9375 C51.04572933 27.26914386 44.27923757 30.65813459 37.78063965 35.65461731 C36 37 36 37 33.73986816 38.37406921 C29.50346058 41.34644083 27.31393291 43.58826852 26.16990662 48.73286438 C25.74589172 53.43304486 25.83012292 58.13007024 25.90234375 62.84375 C25.8966851 64.58111245 25.88706686 66.3184661 25.87367249 68.05578613 C25.84913826 72.60692708 25.87806798 77.15618725 25.91845703 81.70715332 C25.9501791 86.3595204 25.93089702 91.01165238 25.91601562 95.6640625 C25.8943302 104.77670807 25.93388995 113.88756801 26 123 C17.42 123 8.84 123 0 123 C0 82.41 0 41.82 0 0 Z " fill="#FFFFFF" transform="translate(1446,136)"/>
<path d="M0 0 C8.58 0 17.16 0 26 0 C26 46.53 26 93.06 26 141 C17.42 141 8.84 141 0 141 C0 94.47 0 47.94 0 0 Z " fill="#FFFFFF" transform="translate(791,117)"/>
<path d="M0 0 C4.03135021 2.5525132 6.44482181 5.77977793 7.9296875 10.234375 C8.43817953 16.46340238 8.66412959 21.95464652 4.9296875 27.234375 C-0.2455485 32.0214683 -4.43553635 32.60332485 -11.27734375 32.50390625 C-15.68203232 32.0788384 -17.61175252 31.05768927 -21.0703125 28.234375 C-24.48786421 23.72849581 -25.7443084 19.09249595 -25.453125 13.47265625 C-24.5534929 8.21256244 -22.32571833 4.52197073 -18.6328125 0.734375 C-12.87744143 -1.68893914 -5.95858329 -2.20355156 0 0 Z " fill="#FFFFFF" transform="translate(812.0703125,60.765625)"/>
<path d="M0 0 C4.99386602 3.29141169 7.36176063 7.0281693 8.75 12.8125 C9.36552844 19.58331285 7.72387257 24.27466384 3.5625 29.625 C-0.49507751 32.78089362 -4.17690171 33.99123555 -9.33203125 33.69140625 C-14.66275778 32.70272466 -18.13981837 30.22793819 -21.25 25.8125 C-23.7404997 20.18180503 -23.71099622 14.72289378 -22.25 8.8125 C-20.37412808 4.79813409 -18.07243857 2.37906879 -14.4375 -0.125 C-9.21566614 -1.86561129 -5.17897673 -1.89231842 0 0 Z " fill="#F7941E" transform="translate(1097.25,225.1875)"/>
<path d="M0 0 C1.32 0.66 2.64 1.32 4 2 C2.35 2 0.7 2 -1 2 C-0.67 1.34 -0.34 0.68 0 0 Z " fill="#344860" transform="translate(743,351)"/>
<path d="M0 0 C0.66 0 1.32 0 2 0 C1.67 0.66 1.34 1.32 1 2 C0.67 1.34 0.34 0.68 0 0 Z " fill="#344860" transform="translate(936,300)"/>
<path d="M0 0 C0.99 0.495 0.99 0.495 2 1 C1.01 1.495 1.01 1.495 0 2 C0 1.34 0 0.68 0 0 Z " fill="#344860" transform="translate(592,299)"/>
</svg>
